<svg width="401" height="274" viewBox="0 0 401 274" fill="none" xmlns="http://www.w3.org/2000/svg">
<g id="Group 18">
<g id="pez1">
<ellipse id="cuerpo" cx="320.145" cy="70.1277" rx="42.5" ry="32.8723" fill="#F07217"/>
<path id="aletaTrasera" d="M282.145 18.6277C289.345 25.2021 289.145 41.4557 288.145 48.7606C287.812 57.7092 285.845 76.5926 280.645 80.5372C274.145 85.4681 252.645 85.4681 244.145 86.016C235.645 86.5638 239.145 78.3457 244.145 78.3457C249.145 78.3457 249.645 71.2234 245.645 70.1277C241.645 69.0319 242.645 59.7181 247.645 61.9096C252.645 64.1011 252.145 55.883 250.645 55.883C249.145 55.883 246.645 48.7606 254.145 50.4043C261.645 52.0479 259.645 46.5691 256.145 44.3777C252.645 42.1862 257.645 38.3511 259.645 39.4468C261.645 40.5425 266.645 37.8032 261.145 35.0638C255.645 32.3245 261.145 29.5851 263.645 30.6808C266.145 31.7766 271.645 28.4894 265.145 25.75C258.645 23.0106 264.645 20.2713 266.645 21.367C268.645 22.4628 273.145 18.6277 269.145 16.4362C265.945 14.683 267.812 11.3227 269.145 9.86169C270.478 10.0443 274.945 12.0532 282.145 18.6277Z" fill="url(#paint0_linear_65_78)"/>
<path id="aletaDelantera" d="M288.369 63.9402C291.61 60.9798 298.333 62.285 301.29 63.3077C304.975 64.1333 312.662 66.4807 313.925 69.2656C315.503 72.7468 313.963 83.0478 313.582 87.1611C313.2 91.2743 310.044 88.9859 310.402 86.5903C310.76 84.1947 307.844 83.4252 307.103 85.2601C306.362 87.0951 302.573 85.9229 303.84 83.6904C305.106 81.4579 301.664 81.0859 301.556 81.8046C301.449 82.5232 298.317 83.1911 299.536 79.72C300.754 76.2489 298.34 76.7995 297.181 78.3133C296.022 79.8272 294.79 77.1462 295.388 76.2695C295.985 75.3928 295.208 72.7934 293.678 75.2247C292.149 77.656 291.407 74.817 292.04 73.7008C292.674 72.5845 291.705 69.7048 290.104 72.6152C288.503 75.5256 287.797 72.4471 288.394 71.5704C288.992 70.6937 287.724 68.2523 286.529 70.0057C285.574 71.4084 284.314 70.264 283.804 69.5165C283.975 68.8912 285.128 66.9007 288.369 63.9402Z" fill="url(#paint1_linear_65_78)"/>
<g id="ojos">
<ellipse id="Ellipse 3" cx="331.145" cy="31.7766" rx="17.5" ry="31.7766" fill="#FB7C20"/>
<ellipse id="Ellipse 5" cx="363.145" cy="32.8723" rx="17.5" ry="31.7766" fill="#FB7C20"/>
<ellipse id="Ellipse 7" cx="331.145" cy="31.7766" rx="16.5" ry="29.5851" fill="white"/>
<ellipse id="Ellipse 8" cx="363.145" cy="32.8723" rx="16.5" ry="29.5851" fill="white"/>
<ellipse id="Ellipse 4" cx="5.5" cy="7.67021" rx="5.5" ry="7.67021" transform="matrix(1 0 0 -1 315.645 39.4468)" fill="#0C0C0C"/>
<ellipse id="Ellipse 6" cx="5.5" cy="7.67021" rx="5.5" ry="7.67021" transform="matrix(1 0 0 -1 347.645 40.5425)" fill="#0C0C0C"/>
</g>
<ellipse id="cara" cx="355.145" cy="71.2233" rx="45.5" ry="30.6809" fill="#FB7C20"/>
<g id="boca">
<path id="Rectangle 11" d="M357.645 75.0423C357.645 74.6919 357.725 74.3414 357.985 74.1061C358.683 73.4729 360.703 72.3191 366.145 72.3191C370.715 72.3191 373.061 73.4024 374.051 74.0457C374.46 74.3114 374.645 74.7809 374.645 75.2686V76.2575C374.645 77.3889 373.388 78.0669 372.442 77.4454V77.4454C372.247 77.3171 372.023 77.2388 371.791 77.2176L366.145 76.7021L361.513 77.2097C361.269 77.2363 361.032 77.303 360.81 77.4071V77.4071C359.337 78.0989 357.645 77.024 357.645 75.3966V75.0423Z" fill="#F475AC"/>
<path id="Rectangle 12" d="M374.753 79.3479C374.736 79.6981 374.639 80.0436 374.368 80.2634C373.64 80.855 371.567 81.8892 366.133 81.5716C361.569 81.305 359.28 80.0864 358.322 79.3863C357.927 79.097 357.764 78.6171 357.788 78.1299L357.836 77.1438C357.891 76.0135 359.179 75.4092 360.093 76.0851V76.0851C360.282 76.2247 360.502 76.3159 360.733 76.3507L366.346 77.1949L370.996 76.9583C371.241 76.9459 371.481 76.8931 371.707 76.8022V76.8022C373.212 76.1973 374.849 77.3701 374.77 78.9961L374.753 79.3479Z" fill="#F475AC"/>
</g>
</g>
<g id="pez2">
<ellipse id="cuerpo_2" cx="209.145" cy="241.128" rx="42.5" ry="32.8723" fill="#F07217"/>
<path id="aletaTrasera_2" d="M171.145 189.628C178.345 196.202 178.145 212.456 177.145 219.761C176.812 228.709 174.845 247.593 169.645 251.537C163.145 256.468 141.645 256.468 133.145 257.016C124.645 257.564 128.145 249.346 133.145 249.346C138.145 249.346 138.645 242.224 134.645 241.128C130.645 240.032 131.645 230.718 136.645 232.91C141.645 235.101 141.145 226.883 139.645 226.883C138.145 226.883 135.645 219.761 143.145 221.404C150.645 223.048 148.645 217.569 145.145 215.378C141.645 213.186 146.645 209.351 148.645 210.447C150.645 211.543 155.645 208.803 150.145 206.064C144.645 203.325 150.145 200.585 152.645 201.681C155.145 202.777 160.645 199.489 154.145 196.75C147.645 194.011 153.645 191.271 155.645 192.367C157.645 193.463 162.145 189.628 158.145 187.436C154.945 185.683 156.812 182.323 158.145 180.862C159.478 181.044 163.945 183.053 171.145 189.628Z" fill="url(#paint2_linear_65_78)"/>
<path id="aletaDelantera_2" d="M177.369 234.94C180.61 231.98 187.333 233.285 190.29 234.308C193.975 235.133 201.662 237.481 202.925 240.266C204.503 243.747 202.963 254.048 202.582 258.161C202.2 262.274 199.044 259.986 199.402 257.59C199.76 255.195 196.844 254.425 196.103 256.26C195.362 258.095 191.573 256.923 192.84 254.69C194.106 252.458 190.664 252.086 190.556 252.805C190.449 253.523 187.317 254.191 188.536 250.72C189.754 247.249 187.34 247.799 186.181 249.313C185.022 250.827 183.79 248.146 184.388 247.27C184.985 246.393 184.208 243.793 182.678 246.225C181.149 248.656 180.407 245.817 181.04 244.701C181.674 243.585 180.705 240.705 179.104 243.615C177.503 246.526 176.797 243.447 177.394 242.57C177.992 241.694 176.724 239.252 175.529 241.006C174.574 242.408 173.314 241.264 172.804 240.516C172.975 239.891 174.128 237.901 177.369 234.94Z" fill="url(#paint3_linear_65_78)"/>
<g id="ojos_2">
<ellipse id="Ellipse 3_2" cx="220.145" cy="202.777" rx="17.5" ry="31.7766" fill="#FB7C20"/>
<ellipse id="Ellipse 5_2" cx="252.145" cy="203.872" rx="17.5" ry="31.7766" fill="#FB7C20"/>
<ellipse id="Ellipse 7_2" cx="220.145" cy="202.777" rx="16.5" ry="29.5851" fill="white"/>
<ellipse id="Ellipse 8_2" cx="252.145" cy="203.872" rx="16.5" ry="29.5851" fill="white"/>
<ellipse id="Ellipse 4_2" cx="5.5" cy="7.67021" rx="5.5" ry="7.67021" transform="matrix(1 0 0 -1 204.645 210.447)" fill="#0C0C0C"/>
<ellipse id="Ellipse 6_2" cx="5.5" cy="7.67021" rx="5.5" ry="7.67021" transform="matrix(1 0 0 -1 236.645 211.542)" fill="#0C0C0C"/>
</g>
<ellipse id="cara_2" cx="244.145" cy="242.223" rx="45.5" ry="30.6809" fill="#FB7C20"/>
<g id="boca_2">
<path id="Rectangle 11_2" d="M246.645 246.042C246.645 245.692 246.725 245.341 246.985 245.106C247.683 244.473 249.703 243.319 255.145 243.319C259.715 243.319 262.061 244.402 263.051 245.046C263.46 245.311 263.645 245.781 263.645 246.269V247.258C263.645 248.389 262.388 249.067 261.442 248.445V248.445C261.247 248.317 261.023 248.239 260.791 248.218L255.145 247.702L250.513 248.21C250.269 248.236 250.032 248.303 249.81 248.407V248.407C248.337 249.099 246.645 248.024 246.645 246.397V246.042Z" fill="#F475AC"/>
<path id="Rectangle 12_2" d="M263.753 250.348C263.736 250.698 263.639 251.044 263.368 251.263C262.64 251.855 260.567 252.889 255.133 252.572C250.569 252.305 248.28 251.086 247.322 250.386C246.927 250.097 246.764 249.617 246.788 249.13L246.836 248.144C246.891 247.013 248.179 246.409 249.093 247.085V247.085C249.282 247.225 249.502 247.316 249.733 247.351L255.346 248.195L259.996 247.958C260.241 247.946 260.481 247.893 260.707 247.802V247.802C262.212 247.197 263.849 248.37 263.77 249.996L263.753 250.348Z" fill="#F475AC"/>
</g>
</g>
<g id="pez3">
<ellipse id="cuerpo_3" cx="81.1449" cy="138.128" rx="42.5" ry="32.8723" fill="#F07217"/>
<path id="aletaTrasera_3" d="M43.145 86.6278C50.345 93.2022 50.145 109.456 49.145 116.761C48.8117 125.709 46.8449 144.593 41.6449 148.537C35.1449 153.468 13.6449 153.468 5.14491 154.016C-3.35509 154.564 0.144907 146.346 5.14491 146.346C10.1449 146.346 10.6449 139.224 6.64495 138.128C2.64495 137.032 3.64495 127.718 8.64495 129.91C13.6449 132.101 13.145 123.883 11.645 123.883C10.145 123.883 7.64499 116.761 15.145 118.404C22.645 120.048 20.645 114.569 17.145 112.378C13.645 110.186 18.645 106.351 20.645 107.447C22.645 108.543 27.645 105.803 22.145 103.064C16.645 100.325 22.145 97.5852 24.645 98.681C27.145 99.7767 32.645 96.4895 26.145 93.7501C19.645 91.0108 25.645 88.2714 27.645 89.3671C29.645 90.4629 34.145 86.6278 30.145 84.4363C26.945 82.6831 28.8117 79.3228 30.145 77.8618C31.4784 78.0444 35.945 80.0533 43.145 86.6278Z" fill="url(#paint4_linear_65_78)"/>
<path id="aletaDelantera_3" d="M49.3691 131.94C52.6102 128.98 59.3334 130.285 62.2899 131.308C65.9755 132.133 73.6623 134.481 74.925 137.266C76.5034 140.747 74.9634 151.048 74.5816 155.161C74.1999 159.274 71.0439 156.986 71.4021 154.59C71.7602 152.195 68.8436 151.425 68.1029 153.26C67.3622 155.095 63.5729 153.923 64.8395 151.69C66.1061 149.458 62.6637 149.086 62.5562 149.805C62.4488 150.523 59.3173 151.191 60.5358 147.72C61.7544 144.249 59.34 144.799 58.1809 146.313C57.0217 147.827 55.7901 145.146 56.3876 144.27C56.9851 143.393 56.2077 140.793 54.6782 143.225C53.1487 145.656 52.4071 142.817 53.0404 141.701C53.6737 140.585 52.705 137.705 51.1038 140.615C49.5027 143.526 48.7969 140.447 49.3944 139.57C49.9919 138.694 48.7245 136.252 47.5295 138.006C46.5735 139.408 45.3143 138.264 44.8042 137.516C44.9754 136.891 46.1281 134.901 49.3691 131.94Z" fill="url(#paint5_linear_65_78)"/>
<g id="ojos_3">
<ellipse id="Ellipse 3_3" cx="92.1449" cy="99.7766" rx="17.5" ry="31.7766" fill="#FB7C20"/>
<ellipse id="Ellipse 5_3" cx="124.145" cy="100.872" rx="17.5" ry="31.7766" fill="#FB7C20"/>
<ellipse id="Ellipse 7_3" cx="92.1449" cy="99.7765" rx="16.5" ry="29.5851" fill="white"/>
<ellipse id="Ellipse 8_3" cx="124.145" cy="100.872" rx="16.5" ry="29.5851" fill="white"/>
<ellipse id="Ellipse 4_3" cx="5.5" cy="7.67021" rx="5.5" ry="7.67021" transform="matrix(1 0 0 -1 76.6449 107.447)" fill="#0C0C0C"/>
<ellipse id="Ellipse 6_3" cx="5.5" cy="7.67021" rx="5.5" ry="7.67021" transform="matrix(1 0 0 -1 108.645 108.542)" fill="#0C0C0C"/>
</g>
<ellipse id="cara_3" cx="116.145" cy="139.223" rx="45.5" ry="30.6809" fill="#FB7C20"/>
<g id="boca_3">
<path id="Rectangle 11_3" d="M118.645 143.042C118.645 142.692 118.725 142.341 118.985 142.106C119.683 141.473 121.703 140.319 127.145 140.319C131.715 140.319 134.061 141.402 135.051 142.046C135.46 142.311 135.645 142.781 135.645 143.269V144.258C135.645 145.389 134.388 146.067 133.442 145.445V145.445C133.247 145.317 133.023 145.239 132.791 145.218L127.145 144.702L122.513 145.21C122.269 145.236 122.032 145.303 121.81 145.407V145.407C120.337 146.099 118.645 145.024 118.645 143.397V143.042Z" fill="#F475AC"/>
<path id="Rectangle 12_3" d="M135.753 147.348C135.736 147.698 135.639 148.044 135.368 148.263C134.64 148.855 132.567 149.889 127.133 149.572C122.569 149.305 120.28 148.086 119.322 147.386C118.927 147.097 118.764 146.617 118.788 146.13L118.836 145.144C118.891 144.013 120.179 143.409 121.093 144.085V144.085C121.282 144.225 121.502 144.316 121.733 144.351L127.346 145.195L131.996 144.958C132.241 144.946 132.481 144.893 132.707 144.802V144.802C134.212 144.197 135.849 145.37 135.77 146.996L135.753 147.348Z" fill="#F475AC"/>
</g>
</g>
</g>
<defs>
<linearGradient id="paint0_linear_65_78" x1="288.652" y1="57.4425" x2="245.843" y2="43.5633" gradientUnits="userSpaceOnUse">
<stop stop-color="#F07217"/>
<stop offset="0.41" stop-color="#F676E9"/>
<stop offset="1" stop-color="white"/>
</linearGradient>
<linearGradient id="paint1_linear_65_78" x1="304.925" y1="63.7107" x2="294.16" y2="82.0463" gradientUnits="userSpaceOnUse">
<stop stop-color="#F07217"/>
<stop offset="0.41" stop-color="#F676E9"/>
<stop offset="1" stop-color="white"/>
</linearGradient>
<linearGradient id="paint2_linear_65_78" x1="177.652" y1="228.443" x2="134.843" y2="214.563" gradientUnits="userSpaceOnUse">
<stop stop-color="#F07217"/>
<stop offset="0.41" stop-color="#F676E9"/>
<stop offset="1" stop-color="white"/>
</linearGradient>
<linearGradient id="paint3_linear_65_78" x1="193.925" y1="234.711" x2="183.16" y2="253.046" gradientUnits="userSpaceOnUse">
<stop stop-color="#F07217"/>
<stop offset="0.41" stop-color="#F676E9"/>
<stop offset="1" stop-color="white"/>
</linearGradient>
<linearGradient id="paint4_linear_65_78" x1="49.6523" y1="125.443" x2="6.84316" y2="111.563" gradientUnits="userSpaceOnUse">
<stop stop-color="#F07217"/>
<stop offset="0.41" stop-color="#F676E9"/>
<stop offset="1" stop-color="white"/>
</linearGradient>
<linearGradient id="paint5_linear_65_78" x1="65.9252" y1="131.711" x2="55.1599" y2="150.046" gradientUnits="userSpaceOnUse">
<stop stop-color="#F07217"/>
<stop offset="0.41" stop-color="#F676E9"/>
<stop offset="1" stop-color="white"/>
</linearGradient>
</defs>
</svg>
