<svg width="162" height="103" viewBox="0 0 162 103" fill="none" xmlns="http://www.w3.org/2000/svg">
<g id="Group 17">
<ellipse id="cuerpo" cx="81.1449" cy="70.1277" rx="42.5" ry="32.8723" fill="#F07217"/>
<path id="aletaTrasera" d="M43.145 18.6278C50.345 25.2022 50.145 41.4558 49.145 48.7608C48.8117 57.7093 46.8449 76.5927 41.6449 80.5374C35.1449 85.4682 13.6449 85.4682 5.14491 86.0161C-3.35509 86.5639 0.144907 78.3459 5.14491 78.3459C10.1449 78.3459 10.6449 71.2235 6.64495 70.1278C2.64495 69.032 3.64495 59.7182 8.64495 61.9097C13.6449 64.1012 13.145 55.8831 11.645 55.8831C10.145 55.8831 7.64499 48.7608 15.145 50.4044C22.645 52.048 20.645 46.5693 17.145 44.3778C13.645 42.1863 18.645 38.3512 20.645 39.4469C22.645 40.5427 27.645 37.8033 22.145 35.0639C16.645 32.3246 22.145 29.5852 24.645 30.681C27.145 31.7767 32.645 28.4895 26.145 25.7501C19.645 23.0108 25.645 20.2714 27.645 21.3671C29.645 22.4629 34.145 18.6278 30.145 16.4363C26.945 14.6831 28.8117 11.3228 30.145 9.86182C31.4784 10.0444 35.945 12.0533 43.145 18.6278Z" fill="url(#paint0_linear_52_407)"/>
<path id="aletaDelantera" d="M49.3691 63.9402C52.6102 60.9798 59.3334 62.285 62.2899 63.3077C65.9755 64.1333 73.6623 66.4807 74.925 69.2656C76.5034 72.7468 74.9634 83.0478 74.5816 87.1611C74.1999 91.2743 71.0439 88.9859 71.4021 86.5903C71.7602 84.1947 68.8436 83.4252 68.1029 85.2601C67.3622 87.0951 63.5729 85.9229 64.8395 83.6904C66.1061 81.4579 62.6637 81.0859 62.5562 81.8046C62.4488 82.5232 59.3173 83.1911 60.5358 79.72C61.7544 76.2489 59.34 76.7995 58.1809 78.3133C57.0217 79.8272 55.7901 77.1462 56.3876 76.2695C56.9851 75.3928 56.2077 72.7934 54.6782 75.2247C53.1487 77.656 52.4071 74.817 53.0404 73.7008C53.6737 72.5845 52.705 69.7048 51.1038 72.6152C49.5027 75.5256 48.7969 72.4471 49.3944 71.5704C49.9919 70.6937 48.7245 68.2523 47.5295 70.0057C46.5735 71.4084 45.3143 70.264 44.8042 69.5165C44.9754 68.8912 46.1281 66.9007 49.3691 63.9402Z" fill="url(#paint1_linear_52_407)"/>
<g id="ojos">
<ellipse id="Ellipse 3" cx="92.1449" cy="31.7766" rx="17.5" ry="31.7766" fill="#FB7C20"/>
<ellipse id="Ellipse 5" cx="124.145" cy="32.8723" rx="17.5" ry="31.7766" fill="#FB7C20"/>
<ellipse id="Ellipse 7" cx="92.1449" cy="31.7765" rx="16.5" ry="29.5851" fill="white"/>
<ellipse id="Ellipse 8" cx="124.145" cy="32.8725" rx="16.5" ry="29.5851" fill="white"/>
<ellipse id="Ellipse 4" cx="5.5" cy="7.67021" rx="5.5" ry="7.67021" transform="matrix(1 0 0 -1 76.6449 39.4468)" fill="#0C0C0C"/>
<ellipse id="Ellipse 6" cx="5.5" cy="7.67021" rx="5.5" ry="7.67021" transform="matrix(1 0 0 -1 108.645 40.5425)" fill="#0C0C0C"/>
</g>
<ellipse id="cara" cx="116.145" cy="71.2233" rx="45.5" ry="30.6809" fill="#FB7C20"/>
<g id="boca">
<path id="Rectangle 11" d="M118.645 75.0423C118.645 74.6919 118.725 74.3414 118.985 74.1061C119.683 73.4729 121.703 72.3191 127.145 72.3191C131.715 72.3191 134.061 73.4024 135.051 74.0457C135.46 74.3114 135.645 74.7809 135.645 75.2686V76.2575C135.645 77.3889 134.388 78.0669 133.442 77.4454V77.4454C133.247 77.3171 133.023 77.2388 132.791 77.2176L127.145 76.7021L122.513 77.2097C122.269 77.2363 122.032 77.303 121.81 77.4071V77.4071C120.337 78.0989 118.645 77.024 118.645 75.3966V75.0423Z" fill="#F475AC"/>
<path id="Rectangle 12" d="M135.753 79.3479C135.736 79.6981 135.639 80.0436 135.368 80.2634C134.64 80.855 132.567 81.8892 127.133 81.5716C122.569 81.305 120.28 80.0864 119.322 79.3863C118.927 79.097 118.764 78.6171 118.788 78.1299L118.836 77.1438C118.891 76.0135 120.179 75.4092 121.093 76.0851V76.0851C121.282 76.2247 121.502 76.3159 121.733 76.3507L127.346 77.1949L131.996 76.9583C132.241 76.9459 132.481 76.8931 132.707 76.8022V76.8022C134.212 76.1973 135.849 77.3701 135.77 78.9961L135.753 79.3479Z" fill="#F475AC"/>
</g>
</g>
<defs>
<linearGradient id="paint0_linear_52_407" x1="49.6523" y1="57.4427" x2="6.84316" y2="43.5634" gradientUnits="userSpaceOnUse">
<stop stop-color="#F07217"/>
<stop offset="0.41" stop-color="#F676E9"/>
<stop offset="1" stop-color="white"/>
</linearGradient>
<linearGradient id="paint1_linear_52_407" x1="65.9252" y1="63.7107" x2="55.1599" y2="82.0463" gradientUnits="userSpaceOnUse">
<stop stop-color="#F07217"/>
<stop offset="0.41" stop-color="#F676E9"/>
<stop offset="1" stop-color="white"/>
</linearGradient>
</defs>
</svg>
